<?xml version="1.0"?>
<svg xmlns="http://www.w3.org/2000/svg" height="512px" viewBox="-16 0 480 480" width="512px" class=""><g><path d="m152 8h272c8.835938 0 16 7.164062 16 16v384c0 8.835938-7.164062 16-16 16h-272c-8.835938 0-16-7.164062-16-16v-384c0-8.835938 7.164062-16 16-16zm0 0" fill="#ffde55" data-original="#FFDE55" class="" style="fill:#F2FCF2" data-old_color="#ECF7EC"/><path d="m296 56h-272c-8.824219.027344-15.972656 7.175781-16 16v384c.027344 8.824219 7.175781 15.972656 16 16h272c8.824219-.027344 15.972656-7.175781 16-16v-384c-.027344-8.824219-7.175781-15.972656-16-16zm0 0" fill="#96c8ef" data-original="#96C8EF" class="" style="fill:#42B883" data-old_color="#42b883"/><path d="m328 72v352h-16v-352c-.027344-8.824219-7.175781-15.972656-16-16h16c8.824219.027344 15.972656 7.175781 16 16zm0 0" fill="#ffd422" data-original="#FFD422" class="" style="fill:#9AA39A" data-old_color="#00FF59"/><path d="m392 8v64l-16-32-16 32v-64zm0 0" fill="#ff5023" data-original="#FF5023" class="active-path" style="fill:#0099FF"/><path d="m376 40 8 16-8 16zm0 0" fill="#ffd422" data-original="#FFD422" class="" style="fill:#9AA39A" data-old_color="#00FF59"/><path d="m408 8v64l-16-32v-32zm0 0" fill="#ffd422" data-original="#FFD422" class="" style="fill:#9AA39A" data-old_color="#00FF59"/><path d="m360 200c-10.808594.03125-21.445312-2.726562-30.878906-8-6.558594-4.34375-12.34375-9.75-17.121094-16-4.777344 6.25-10.5625 11.65625-17.121094 16-9.433594 5.273438-20.070312 8.03125-30.878906 8l-16 .160156v60.398438c.011719 22.054687 11.378906 42.550781 30.078125 54.242187l33.921875 21.199219 33.921875-21.199219c18.699219-11.691406 30.066406-32.1875 30.078125-54.242187v-60.398438zm0 0" fill="#ff5023" data-original="#FF5023" class="active-path" style="fill:#0099FF"/><path d="m392 200.160156v60.398438c-.011719 22.054687-11.378906 42.550781-30.078125 54.242187l-33.921875 21.199219-8-4.960938 25.921875-16.238281c18.699219-11.691406 30.066406-32.1875 30.078125-54.242187v-60.398438l-16-.160156c-10.808594.03125-21.445312-2.726562-30.878906-8-3.359375-1.964844-6.429688-4.386719-9.121094-7.199219 2.878906-2.878906 5.601562-6 8-8.800781 4.777344 6.25 10.5625 11.65625 17.121094 16 9.433594 5.273438 20.070312 8.03125 30.878906 8zm0 0" fill="#ffd422" data-original="#FFD422" class="" style="fill:#9AA39A" data-old_color="#00FF59"/><path d="m264 56v64l-16-32-16 32v-64zm0 0" fill="#ff5023" data-original="#FF5023" class="active-path" style="fill:#0099FF"/><path d="m248 88 8 16-8 16zm0 0" fill="#78b9eb" data-original="#78B9EB" class="" style="fill:#2F9265" data-old_color="#42B883"/><path d="m280 56v64l-16-32v-32zm0 0" fill="#78b9eb" data-original="#78B9EB" class="" style="fill:#2F9265" data-old_color="#42B883"/><path d="m424 0h-272c-13.253906 0-24 10.746094-24 24v24h-104c-13.253906 0-24 10.746094-24 24v384c0 13.253906 10.746094 24 24 24h272c13.253906 0 24-10.746094 24-24v-24h104c13.253906 0 24-10.746094 24-24v-384c0-13.253906-10.746094-24-24-24zm-56 16h16v22.113281l-.800781-1.6875c-1.503907-2.523437-4.222657-4.070312-7.160157-4.070312-2.933593 0-5.65625 1.546875-7.160156 4.070312l-.800781 1.6875zm-72 448h-272c-4.417969 0-8-3.582031-8-8v-384c0-4.417969 3.582031-8 8-8h200v56c-.042969 3.746094 2.519531 7.019531 6.167969 7.878906 3.644531.855469 7.398437-.929687 9.03125-4.304687l8.800781-17.6875 8.800781 17.6875c1.632813 3.375 5.386719 5.160156 9.03125 4.304687 3.648438-.859375 6.210938-4.132812 6.167969-7.878906v-56h24c4.417969 0 8 3.582031 8 8v100.992188c-3.671875 4.675781-8.074219 8.726562-13.039062 12-8.257813 4.613281-17.566407 7.027343-27.023438 7.007812l-16 .128906c-4.394531.035156-7.9375 3.605469-7.9375 8v60.398438c-.085938 24.851562 12.726562 47.96875 33.839844 61.074218l30.160156 18.832032v115.566406c0 4.417969-3.582031 8-8 8zm-56-400h16v22.113281l-.800781-1.6875c-1.503907-2.523437-4.222657-4.070312-7.160157-4.070312-2.933593 0-5.65625 1.546875-7.160156 4.070312l-.800781 1.6875zm72 262.566406-29.679688-18.566406c-16.414062-10.1875-26.375-28.152344-26.320312-47.472656v-52.464844l8-.0625c12.140625.023438 24.085938-3.0625 34.695312-8.96875 4.984376-2.9375 9.476563-6.644531 13.304688-10.984375 3.800781 4.3125 8.253906 8 13.199219 10.929687 10.617187 5.929688 22.578125 9.035157 34.738281 9.023438l8.0625.0625v52.464844c.054688 19.320312-9.90625 37.285156-26.320312 47.472656zm120 81.433594c0 4.417969-3.582031 8-8 8h-104v-75.566406l30.167969-18.832032c21.109375-13.109374 33.914062-36.226562 33.832031-61.074218v-60.398438c0-4.394531-3.542969-7.964844-7.9375-8l-16.0625-.128906c-9.476562.019531-18.796875-2.402344-27.0625-7.03125-4.925781-3.277344-9.292969-7.320312-12.9375-11.976562v-100.992188c0-13.253906-10.746094-24-24-24h-152v-24c0-4.417969 3.582031-8 8-8h200v56c-.042969 3.746094 2.519531 7.019531 6.167969 7.878906 3.644531.855469 7.398437-.929687 9.03125-4.304687l8.800781-17.6875 8.800781 17.6875c1.632813 3.375 5.386719 5.160156 9.03125 4.304687 3.648438-.859375 6.210938-4.132812 6.167969-7.878906v-56h24c4.417969 0 8 3.582031 8 8zm0 0" data-original="#000000" class="" style="fill:#000000"/><path d="m48 176h64v16h-64zm0 0" data-original="#000000" class="" style="fill:#000000"/><path d="m128 176h32v16h-32zm0 0" data-original="#000000" class="" style="fill:#000000"/><path d="m176 176h48v16h-48zm0 0" data-original="#000000" class="" style="fill:#000000"/><path d="m48 208h48v16h-48zm0 0" data-original="#000000" class="" style="fill:#000000"/><path d="m112 208h16v16h-16zm0 0" data-original="#000000" class="" style="fill:#000000"/><path d="m144 208h80v16h-80zm0 0" data-original="#000000" class="" style="fill:#000000"/><path d="m48 240h64v16h-64zm0 0" data-original="#000000" class="" style="fill:#000000"/><path d="m128 240h48v16h-48zm0 0" data-original="#000000" class="" style="fill:#000000"/><path d="m192 240h32v16h-32zm0 0" data-original="#000000" class="" style="fill:#000000"/><path d="m48 272h176v16h-176zm0 0" data-original="#000000" class="" style="fill:#000000"/><path d="m48 304h48v16h-48zm0 0" data-original="#000000" class="" style="fill:#000000"/><path d="m112 304h80v16h-80zm0 0" data-original="#000000" class="" style="fill:#000000"/><path d="m208 304h16v16h-16zm0 0" data-original="#000000" class="" style="fill:#000000"/><path d="m48 336h16v16h-16zm0 0" data-original="#000000" class="" style="fill:#000000"/><path d="m80 336h48v16h-48zm0 0" data-original="#000000" class="" style="fill:#000000"/><path d="m144 336h128v16h-128zm0 0" data-original="#000000" class="" style="fill:#000000"/><path d="m48 96h16v16h-16zm0 0" data-original="#000000" class="" style="fill:#000000"/><path d="m80 96h72v16h-72zm0 0" data-original="#000000" class="" style="fill:#000000"/><path d="m48 128h104v16h-104zm0 0" data-original="#000000" class="" style="fill:#000000"/><path d="m346.34375 218.34375-42.34375 42.34375-18.34375-18.34375-11.3125 11.3125 24 24c3.125 3.121094 8.1875 3.121094 11.3125 0l48-48zm0 0" data-original="#000000" class="" style="fill:#000000"/><path d="m336 112h64v16h-64zm0 0" data-original="#000000" class="" style="fill:#000000"/><path d="m336 144h64v16h-64zm0 0" data-original="#000000" class="" style="fill:#000000"/><path d="m336 352h64v16h-64zm0 0" data-original="#000000" class="" style="fill:#000000"/><path d="m336 384h64v16h-64zm0 0" data-original="#000000" class="" style="fill:#000000"/></g> </svg>
